<svg xmlns="http://www.w3.org/2000/svg" width="64.64" height="63.957" viewBox="0 0 64.64 63.957">
    <defs>
        <style>
            .cls-1{fill:#a80e0e}
        </style>
    </defs>
    <g id="Group_1417" data-name="Group 1417" transform="translate(-1129 -2043)">
        <path id="Path_4277" d="M287.27 46.583a27.415 27.415 0 0 1 11.121 4.217 17.334 17.334 0 0 1 6.435 7.42 1.263 1.263 0 1 0 2.327-.981 19.838 19.838 0 0 0-7.347-8.53 29.95 29.95 0 0 0-12.15-4.622 1.263 1.263 0 0 0-.386 2.5zm0 0" class="cls-1" data-name="Path 4277" transform="translate(878.932 2004.491)"/>
        <path id="Path_4278" d="M99.726 126.948a1.262 1.262 0 1 0 .434-1.512 1.291 1.291 0 0 0-.434 1.512zm0 0" class="cls-1" data-name="Path 4278" transform="translate(1041.943 1933.597)"/>
        <path id="Path_4279" d="M147.9 89.7a1.262 1.262 0 1 0 .427-1.507 1.289 1.289 0 0 0-.427 1.507zm0 0" class="cls-1" data-name="Path 4279" transform="translate(999.854 1966.14)"/>
        <path id="Path_4280" d="M199.664 126.948a1.262 1.262 0 1 0 .434-1.512 1.292 1.292 0 0 0-.434 1.512zm0 0" class="cls-1" data-name="Path 4280" transform="translate(954.623 1933.597)"/>
        <path id="Path_4281" d="M64.641 40.014a6.4 6.4 0 0 0-4.27-6.025V30.83a5.422 5.422 0 0 0 1.146-.584 4.985 4.985 0 0 0 2.262-4.185 4.932 4.932 0 0 0-.936-2.905 4.074 4.074 0 0 0 .251-2.337C62.013 15.036 58.3 9.744 52.64 5.914A36.538 36.538 0 0 0 32.321 0 36.538 36.538 0 0 0 12 5.914c-5.66 3.829-9.373 9.122-10.454 14.9a4.071 4.071 0 0 0 .527 2.875 4.911 4.911 0 0 0-.6 2.367 4.985 4.985 0 0 0 2.263 4.185 5.5 5.5 0 0 0 .531.313v3.43A6.4 6.4 0 0 0 0 40.014v.256a6.37 6.37 0 0 0 2.037 4.67 4.979 4.979 0 0 0 .731 5.635v4.555a8.837 8.837 0 0 0 8.827 8.827h41.452a8.837 8.837 0 0 0 8.827-8.827v-3.983a4.986 4.986 0 0 0 1.12-6.6 6.359 6.359 0 0 0 1.646-4.274zm-2.525 0v.256a3.867 3.867 0 0 1-3.861 3.861H38.677l8.051-7.979h11.526a3.866 3.866 0 0 1 3.862 3.861zm-42.98-3.861l.2.2 1.3 1.295-2.716 2.711-4.207-4.207zm11.92 8.347l-7.746-7.745-.6-.6h20.426L34.7 44.5l-1.825 1.82zM4.03 21.282c.956-5.113 4.29-9.828 9.387-13.277a33.992 33.992 0 0 1 18.9-5.48 33.992 33.992 0 0 1 18.9 5.48c5.1 3.448 8.43 8.163 9.387 13.277a1.586 1.586 0 0 1-1.543 1.854H5.573a1.586 1.586 0 0 1-1.543-1.854zm.066 4.1a4.111 4.111 0 0 0 1.477.275h53.5a4.118 4.118 0 0 0 2.005-.522 2.448 2.448 0 0 1 .18.921 2.5 2.5 0 0 1-1.145 2.089 2.974 2.974 0 0 1-2.543.351c-.421-.133-.818-.3-1.252-.4a6.825 6.825 0 0 0-1.43-.145 6.92 6.92 0 0 0-4.438 1.54 4.659 4.659 0 0 1-5.961 0 7.16 7.16 0 0 0-8.875 0 4.66 4.66 0 0 1-5.962 0 7.162 7.162 0 0 0-8.875 0 4.659 4.659 0 0 1-5.962 0 6.916 6.916 0 0 0-4.438-1.54 6.391 6.391 0 0 0-2.459.463 2.979 2.979 0 0 1-2.766-.27A2.5 2.5 0 0 1 4 26.061a2.432 2.432 0 0 1 .093-.674zm2.951 5.774a6.133 6.133 0 0 0 1.9-.434 4.349 4.349 0 0 1 1.937-.223 4.567 4.567 0 0 1 2.471 1.056 7.16 7.16 0 0 0 8.875 0 4.66 4.66 0 0 1 5.962 0 7.16 7.16 0 0 0 8.875 0 4.66 4.66 0 0 1 5.962 0 7.16 7.16 0 0 0 8.874 0 4.463 4.463 0 0 1 2.981-1.078 4.088 4.088 0 0 1 1.5.275 5.847 5.847 0 0 0 1.459.376v2.495H6.8v-2.46c.084 0 .167 0 .251-.007zm-4.521 8.858a3.866 3.866 0 0 1 3.861-3.861h3.756l6.885 6.885a1.263 1.263 0 0 0 1.785 0l3.6-3.6 4.7 4.7H6.387a3.867 3.867 0 0 1-3.861-3.868zm1.686 6.261a6.406 6.406 0 0 0 2.176.382h23.253L31.982 49a1.275 1.275 0 0 0 1.781 0l2.367-2.345h22.124a6.423 6.423 0 0 0 2.1-.354 3.217 3.217 0 0 0 .418-.166c.043-.022.105-.072.156-.068.07 0 .088.094.113.15a2.444 2.444 0 0 1 .216.962 2.627 2.627 0 0 1-1.957 2.515 2.99 2.99 0 0 1-1.955-.108 6.378 6.378 0 0 0-2.458-.463 6.916 6.916 0 0 0-4.437 1.541 4.659 4.659 0 0 1-5.962 0 7.16 7.16 0 0 0-8.875 0 4.659 4.659 0 0 1-5.962 0 7.16 7.16 0 0 0-8.875 0 4.659 4.659 0 0 1-5.962 0 6.919 6.919 0 0 0-4.438-1.541 6.378 6.378 0 0 0-2.459.463 2.976 2.976 0 0 1-2.562-.146 2.589 2.589 0 0 1-1.324-1.84 2.491 2.491 0 0 1-.007-.706c.009-.068.125-.643.187-.62zm55.137 8.855a6.31 6.31 0 0 1-6.3 6.3H11.595a6.31 6.31 0 0 1-6.3-6.3v-2.994a5.468 5.468 0 0 0 3.222-.081l.065-.022c.1-.034.194-.069.29-.108a3.907 3.907 0 0 1 1.5-.275 4.459 4.459 0 0 1 2.981 1.078 7.161 7.161 0 0 0 8.875 0 4.66 4.66 0 0 1 5.962 0 7.16 7.16 0 0 0 8.875 0 4.66 4.66 0 0 1 5.961 0 7.16 7.16 0 0 0 8.875 0 4.46 4.46 0 0 1 2.981-1.078 4.167 4.167 0 0 1 1.118.142c.346.1.672.248 1.018.346a5.447 5.447 0 0 0 2.331.131v2.861zm0 0" class="cls-1" data-name="Path 4281" transform="translate(1128.999 2043)"/>
        <path id="Path_4282" d="M225.277 89.7a1.262 1.262 0 1 0 .436-1.512 1.289 1.289 0 0 0-.436 1.512zm0 0" class="cls-1" data-name="Path 4282" transform="translate(932.244 1966.141)"/>
        <path id="Path_4283" d="M270.395 133.788a1.262 1.262 0 1 0 .435-1.512 1.29 1.29 0 0 0-.435 1.512zm0 0" class="cls-1" data-name="Path 4283" transform="translate(892.821 1927.621)"/>
        <path id="Path_4284" d="M241.644 40.019a1.263 1.263 0 1 0-.478-1.5 1.289 1.289 0 0 0 .478 1.5zm0 0" class="cls-1" data-name="Path 4284" transform="translate(918.349 2010.053)"/>
    </g>
</svg>
