<svg xmlns="http://www.w3.org/2000/svg" width="73.144" height="70.212" viewBox="0 0 73.144 70.212">
    <defs>
        <style>
            .cls-1{fill:#a80e0e}
        </style>
    </defs>
    <g id="Group_1416" data-name="Group 1416" transform="translate(-665 -2040)">
        <g id="XMLID_386_" transform="translate(665 2040)">
            <path id="XMLID_389_" d="M73 48.747a28.834 28.834 0 0 0-22.419-25.284v-3.63a4.857 4.857 0 0 0-1.172-9.571H39.122a4.857 4.857 0 0 0-1.172 9.571v3.64a28.686 28.686 0 0 0-14.069 7.739 29 29 0 0 0-2.426 2.753c-.036 0-.072-.005-.108-.005h-10.18a1.429 1.429 0 1 0 0 2.857h8.345a28.639 28.639 0 0 0-2.535 5.491H1.429a1.429 1.429 0 1 0 0 2.857H16.17a29.047 29.047 0 0 0-.709 5.491H9.143a1.429 1.429 0 1 0 0 2.857h6.363A29 29 0 0 0 16.4 59H7.143a1.429 1.429 0 1 0 0 2.857H17.31a28.854 28.854 0 0 0 24.125 18.478q1.416.14 2.831.139a28.927 28.927 0 0 0 15.749-4.654 1.429 1.429 0 0 0-1.559-2.394 26 26 0 1 1 7.658-7.668 1.429 1.429 0 1 0 2.4 1.556A28.95 28.95 0 0 0 73 48.747zM37.122 15.119a2 2 0 0 1 2-2h10.286a2 2 0 0 1 0 4H39.122a2 2 0 0 1-2-2zm3.685 7.862v-3h6.916v3a29.109 29.109 0 0 0-6.916.001z" class="cls-1" transform="translate(0 -10.262)"/>
            <path id="XMLID_391_" d="M437.2 425.5a1.429 1.429 0 1 0 1.01.419 1.436 1.436 0 0 0-1.01-.419z" class="cls-1" transform="translate(-373.515 -366.179)"/>
            <path id="XMLID_394_" d="M177.034 144.609a22.162 22.162 0 1 0 22.166 22.162 22.187 22.187 0 0 0-22.166-22.162zm0 41.467a19.3 19.3 0 1 1 19.3-19.3 19.327 19.327 0 0 1-19.3 19.3z" class="cls-1" transform="translate(-132.747 -125.416)"/>
            <path id="XMLID_397_" d="M273.64 219.83l-7.076 7.076a4.428 4.428 0 0 0-3.922 0l-3.167-3.167a1.429 1.429 0 1 0-2.02 2.02l3.167 3.167a4.439 4.439 0 1 0 7.963 0l6.868-6.868.208-.208a1.429 1.429 0 1 0-2.02-2.02zm-9.04 12.639a1.582 1.582 0 1 1 1.582-1.582 1.584 1.584 0 0 1-1.582 1.582z" class="cls-1" transform="translate(-220.316 -189.532)"/>
            <path id="XMLID_398_" d="M400.407 289.86h-1.324a1.429 1.429 0 1 0 0 2.857h1.324a1.429 1.429 0 0 0 0-2.857z" class="cls-1" transform="translate(-340.845 -249.916)"/>
            <path id="XMLID_399_" d="M195.834 289.616h-1.323a1.429 1.429 0 1 0 0 2.857h1.323a1.429 1.429 0 1 0 0-2.857z" class="cls-1" transform="translate(-165.498 -249.707)"/>
            <path id="XMLID_400_" d="M301.552 187a1.429 1.429 0 0 0 1.429-1.429v-1.323a1.429 1.429 0 0 0-2.857 0v1.323a1.429 1.429 0 0 0 1.428 1.429z" class="cls-1" transform="translate(-257.247 -158.167)"/>
            <path id="XMLID_424_" d="M301.308 387.393a1.429 1.429 0 0 0-1.429 1.429v1.323a1.429 1.429 0 1 0 2.857 0v-1.323a1.429 1.429 0 0 0-1.428-1.429z" class="cls-1" transform="translate(-257.038 -333.516)"/>
            <path id="XMLID_425_" d="M1.429 351.44a1.429 1.429 0 1 0 1.01 2.439 1.429 1.429 0 0 0-1.01-2.439z" class="cls-1" transform="translate(0 -302.699)"/>
        </g>
    </g>
</svg>
