<svg xmlns="http://www.w3.org/2000/svg" id="Group_1366" width="72.913" height="72.913" data-name="Group 1366" viewBox="0 0 72.913 72.913">
    <defs>
        <style>
            .cls-1{fill:#a80e0e}
        </style>
    </defs>
    <g id="Group_1365" data-name="Group 1365">
        <path id="Path_4285" d="M69.385 39.985V24.7a3.532 3.532 0 0 0-3.528-3.528H63.5a3.505 3.505 0 0 0-2.352.917 3.5 3.5 0 0 0-2.352-.917h-2.347a3.505 3.505 0 0 0-2.352.917 3.5 3.5 0 0 0-2.352-.917h-2.352a3.532 3.532 0 0 0-3.528 3.528v15.087c-2.713-1.88-6.673-3.481-12.47-4.158l1.852-12.967a3.368 3.368 0 0 0-3.338-3.846H21.168V8.232a1.178 1.178 0 0 1 1.176-1.176h9.408a3.528 3.528 0 0 0 0-7.056H21.168a7.063 7.063 0 0 0-7.056 7.056v11.76H3.372A3.375 3.375 0 0 0 0 22.188a3.444 3.444 0 0 0 .034.477L2.868 42.5A11.528 11.528 0 0 0 0 49.393a4.7 4.7 0 0 0 3.16 4.423 4.675 4.675 0 0 0 .494 5.864 7.054 7.054 0 0 0 3.4 13.234h65.859v-29.4a3.532 3.532 0 0 0-3.528-3.529zM62.329 24.7a1.178 1.178 0 0 1 1.171-1.18h2.352a1.178 1.178 0 0 1 1.181 1.18v15.285h-4.7zm-7.056 0a1.178 1.178 0 0 1 1.176-1.176H58.8a1.178 1.178 0 0 1 1.177 1.176v15.285h-4.7zm-7.056 0a1.178 1.178 0 0 1 1.176-1.176h2.352a1.178 1.178 0 0 1 1.176 1.176v15.285h-4.7zM29.4 2.352h2.352a1.176 1.176 0 0 1 0 2.352H29.4zm-4.7 0h2.352V4.7H24.7zm-8.232 4.7a4.709 4.709 0 0 1 4.7-4.7h1.176V4.7a3.532 3.532 0 0 0-3.528 3.528v10.588h-2.352zM2.532 23.52l-.169-1.184a1.047 1.047 0 0 1-.011-.148 1.021 1.021 0 0 1 1.02-1.02h28.537a1.021 1.021 0 0 1 1.02 1.02 1.15 1.15 0 0 1-.009.145l-.171 1.188H29.4v2.352h3.012l-.672 4.7H3.54l-.672-4.7h24.18V23.52zm28.874 9.408l-.355 2.488a57.894 57.894 0 0 0-4-.136H24.7c-10.248 0-16.234 2.386-19.742 5.2l-1.082-7.552zM2.352 49.393c0-.118.255-11.76 22.344-11.76h2.352c21.936 0 22.338 11.287 22.344 11.76a2.354 2.354 0 0 1-2.352 2.352H4.7a2.354 2.354 0 0 1-2.348-2.352zm4.7 9.408a2.352 2.352 0 0 1 0-4.7h37.637a2.352 2.352 0 1 1 0 4.7zm32.728 2.352l-4.825 5.63-12.869-5.63zm4.909 9.408H7.056a4.7 4.7 0 1 1 0-9.408h9.162l19.388 8.483 7.271-8.483h1.811a4.7 4.7 0 0 1 0 9.408zm3.4-10.882a4.619 4.619 0 0 0 .647-5.583h17.121v11.76H51.745a7.027 7.027 0 0 0-.412-2.352H58.8v-2.351h-8.866a7.1 7.1 0 0 0-1.842-1.474zm22.472-12.638h-2.352v2.352h2.352v21.168H49.934a7.027 7.027 0 0 0 1.4-2.352h16.875V51.745H51.091a4.656 4.656 0 0 0 .654-2.352h14.112v-2.352H51.346a12.6 12.6 0 0 0-2.61-4.7h20.649a1.177 1.177 0 0 1 1.176 1.176z" class="cls-1" data-name="Path 4285"/>
        <path id="Rectangle_275" d="M0 0h3v3H0z" class="cls-1" data-name="Rectangle 275" transform="translate(61 60.913)"/>
        <path id="Rectangle_276" d="M0 0h3v2H0z" class="cls-1" data-name="Rectangle 276" transform="translate(15 39.913)"/>
        <path id="Rectangle_277" d="M0 0h2v3H0z" class="cls-1" data-name="Rectangle 277" transform="translate(20 41.913)"/>
        <path id="Rectangle_278" d="M0 0h2v2H0z" class="cls-1" data-name="Rectangle 278" transform="translate(25 39.913)"/>
        <path id="Rectangle_279" d="M0 0h2v2H0z" class="cls-1" data-name="Rectangle 279" transform="translate(32 43.913)"/>
        <path id="Rectangle_280" d="M0 0h2v2H0z" class="cls-1" data-name="Rectangle 280" transform="translate(38 39.913)"/>
        <path id="Rectangle_281" d="M0 0h3v2H0z" class="cls-1" data-name="Rectangle 281" transform="translate(8 44.913)"/>
    </g>
</svg>
