<svg xmlns="http://www.w3.org/2000/svg" width="2069" height="71.582" viewBox="0 0 2069 71.582">
    <defs>
        <style>
            .cls-1{fill:#fff}
        </style>
    </defs>
    <g id="Group_1397" data-name="Group 1397" transform="rotate(180 1034.5 35.746)">
        <path id="Path_4317" d="M401.023 4c7.566 1.212 7.19 1.212 8.9.014 1.644-1.157.906-1.352-7.037-1.8-8.077-.453-9.192.62-1.863 1.786z" class="cls-1" data-name="Path 4317" transform="translate(155.838 .866)"/>
        <path id="Path_4318" d="M319.666 10.034a13.527 13.527 0 0 0-6.4.084c3.46.766 8.713.71 6.4-.084z" class="cls-1" data-name="Path 4318" transform="translate(123.243 3.853)"/>
        <path id="Path_4319" d="M336.616 11.244c1.965-.836 1.449-.934-5.058-.892-5.128.028-7.092.265-6.758.794.725 1.115 9.252 1.185 11.816.098z" class="cls-1" data-name="Path 4319" transform="translate(127.764 4.105)"/>
        <path id="Path_4320" d="M542.629 9.94c3.693 1.728 8.96 1.881 12.039.348 1.5-.752 2.229-1.3 1.589-1.2-2.829.39-8.751-.7-8.792-1.6-.056-1.184-.279-1.184-4.027-.181-3.456.933-3.582 1.337-.809 2.633z" class="cls-1" data-name="Path 4320" transform="translate(212.709 2.622)"/>
        <path id="Path_4321" d="M420.329 4.821c1.714-1.2.516-1.756-3.637-1.7-2.592.028-3.274.307-2.94 1.17.548 1.394 4.835 1.742 6.577.53z" class="cls-1" data-name="Path 4321" transform="translate(162.742 1.262)"/>
        <path id="Path_4322" d="M822.33 13.418c1.463.766 8.792.864 9.573.125 1.087-1.017-1.5-1.9-5.532-1.853-2.926.042-5.323 1.059-4.041 1.728z" class="cls-1" data-name="Path 4322" transform="translate(323.371 4.634)"/>
        <path id="Path_4323" d="M847.359 14.286c6.27-.585 9.015-.6 10.186-.1.92.4 3.567.529 6.229.293 2.536-.223 4.933-.153 5.295.167.961.822 8.82.571 11.537-.362a61.233 61.233 0 0 1 10.144-1.31c9.21-.6 10.046-.92 7.078-2.661-1.853-1.087-3-1.212-6.911-.766a69.442 69.442 0 0 1-7.009.474c-7.845-.181-16.247.167-17.376.711-.85.4-2.857.418-5.615.042a17.666 17.666 0 0 0-6.326.014 23.262 23.262 0 0 1-6.1.376c-10-.571-17.418.418-17.348 2.285.095 1.868 3.313 2.035 16.216.837z" class="cls-1" data-name="Path 4323" transform="translate(326.976 3.697)"/>
        <path id="Path_4324" d="M509.149 29.111c2.2.279 3.233.1 3.72-.655a3.243 3.243 0 0 1 2.452-1.059c.975-.014 1.756-.46 1.742-.989-.042-1.143-.613-1.184-3.511-.279a9.322 9.322 0 0 1-5.072-.014c-3.47-.822-8.876-.139-8.82 1.1.028.488 1.491 1.017 3.247 1.2s4.57.485 6.242.696z" class="cls-1" data-name="Path 4324" transform="translate(196.569 10.066)"/>
        <path id="Path_4325" d="M2055.149 40.96c.961-.46 7.037-.892 13.85-1.157v-5.726c-.5.084-.989.181-1.463.265-5.657 1.157-6.535 1.184-10.451.348a24.331 24.331 0 0 0-6.925-.516c-1.463.223-2.982.125-3.386-.223-.446-.39-6.507-.4-16.052-.028-18.3.711-19.633.739-26.377.6-7.037-.153-40.673 1.073-43.4 1.588-1.937.362-9.963.725-36.117 1.616a123.176 123.176 0 0 1-16.791-.752c-10.59-1.268-12.067-2.16-9.684-5.88.892-1.407.739-1.672-1-1.644a8.614 8.614 0 0 1-3.484-.725c-2.8-1.477-16.428-2.174-17.766-.892-.7.655-1.561.6-4.041-.251-3.177-1.1-7.26-1.17-28.495-.488a97.22 97.22 0 0 1-11.342-.237c-3.093-.39-3.79-.293-3.748.543.042 1.045-2.383 1.407-3.957.585-.488-.265-8.556-.4-17.933-.307-16.484.153-56.266-.042-70.548-.334-3.846-.084-8.291-.125-9.893-.1s-7.092.056-12.206.056c-10.7.014-23.841.265-41.245.78-6.7.2-14.826.153-18.031-.125-7.915-.655-29.61-1.366-46.568-1.519-7.678-.07-16.846-.251-20.358-.4s-12.694-.32-20.358-.362-17.627-.209-22.113-.39c-14.561-.571-16.6-.446-19.563 1.17-2.745 1.5-2.745 1.5-4.71-.557a6.086 6.086 0 0 1-1.421-2.383c.6-.348 10.032-.516 27.631-.488 11.078.028 11.4-.028 13.725-1.742 2.884-2.132 2.341-2.494-4.027-2.661-9.8-.237-15.453-.822-16.8-1.728a7.411 7.411 0 0 0-3.525-.92 145.8 145.8 0 0 0-16.888 1.254c-1.1.279-4.306.028-7.232-.543a28.623 28.623 0 0 0-8.207-.585 12.479 12.479 0 0 1-5.657-.488c-2.369-.808-3.01-.808-5.044.014-2.09.85-2.787.794-6.758-.627-6.033-2.16-17.613-2.118-24.789.084-5.56 1.714-19.257 1.658-24.468-.084-4.152-1.379-7.552-.46-6.563 1.784.446 1.017.265 1.993-.418 2.243-2.452.892-1.031 1.491 4.375 1.853 8.932.613 29.6 1.338 34.793 1.24 2.745-.056 5.379.279 6.173.78 1.073.683 2.327.725 5.671.181 8.054-1.31 14.059-1.5 16.832-.557a17.08 17.08 0 0 0 6.4.557c2.94-.279 3.776-.125 3.8.7.056 1.449-3.024 2.034-5.337 1.031-1.853-.808-5.072.6-6.911 2.731a10.87 10.87 0 0 0-4.1 1.157 4.551 4.551 0 0 1-4.417.376c-3.065-1-3.484-.948-3.414.529.056 1.352-1.979 2.188-7.232 2.954-2.968.432-3.2.348-3.358-1.993-2.187.46-5.671-.585-6.633-2.717-.474-.028-3.5-.111-6.688-.209-15.369-.4-22.336-.864-24.608-1.616-2.689-.892-8.751-.056-12.4 1.714a4.871 4.871 0 0 1-2.94.488c-1.491-.488-13.349-.92-25.179-.934a94.038 94.038 0 0 1-10.479-.362c-2.3-.711-12.248-1.1-12.22-.488.056 1.143-3.33 1.393-6.633.488a43.545 43.545 0 0 0-9.308-.822c-6.047.084-6.047.084-4.417 2.146a5.625 5.625 0 0 1 .989 5.518s-1.9-.808-4.1-2.034c-4.682-2.62-6.661-2.829-6.577-.669a2.308 2.308 0 0 1-1.951 2.02c-2.578.613 2.257 1.756 4.9 1.157a3.553 3.553 0 0 1 2.982.948c1.7 1.672 4.111 1.644 7.023-.042 2.647-1.533 4.57-1.728 4.626-.446.042 1.115 4.919 1.77 8.778 1.184a13.056 13.056 0 0 1 5.936.6 10.446 10.446 0 0 0 4.96.571c2.926-.725 14.422-1.073 16.442-.516a59.566 59.566 0 0 0 8.193.808c8.514.4 8.165.4 12.638-.042a15.813 15.813 0 0 1 6.131.432c1.435.529 4.264.683 8 .446a46.606 46.606 0 0 1 9.308.237c-.042-1.143 5.351-2.7 7.232-2.09a84.441 84.441 0 0 0 10.688.488c5.142.028 17.724.153 27.952.153 23.145-.014 29.875.529 27.408 2.257-1.115.78-1.017 1.045.46 1.338 2.243.446 4.25-.209 4.194-1.366-.056-1.352 7.789-1.658 12.039-.474 3.246.906 4.222.92 8.137.1 5.476-1.157 8.96-.5 6.145 1.143a3.253 3.253 0 0 0-1.742 2.383c.07 1.686-1.589 1.728-4.654.111-3.121-1.658-4.724-1.575-4.64.237a4.546 4.546 0 0 1-1.686 2.926c-1.672 1.393-1.616 1.449 1.352 1.421 2.536-.028 3.01.2 2.55 1.254-.766 1.811.794 2.1 3.052.571a8.661 8.661 0 0 1 4.083-1.31c3.219-.042 5.044-1.672 4.166-3.734-1.087-2.55.934-4.166 3.219-2.578a4.768 4.768 0 0 1 1.8 2.968 1.359 1.359 0 0 1 .153 2.7c-1.881.376.153 3.679 2.731 4.389 1.226.348 2.243 1.031 2.257 1.533s.92 1.17 1.979 1.477c1.226.362 1.686.989 1.24 1.686-.92 1.435-3.316 1.031-4.863-.822-1.142-1.366-1.728-1.435-8.333-1.017-3.916.251-7.483.265-7.928.028-.934-.5-1.5-.529-9.085-.571-5.086-.028-5.532-.153-5.6-1.658-.084-2.048-3.386-2.815-5.365-1.24-1.658 1.324-5.95.934-8.263-.739-1.268-.92-1.616-.892-3.706.2a9.18 9.18 0 0 1-5.615.85 11.338 11.338 0 0 0-5.574.641c-2.759 1.212-10.506 1.449-11.607.028 1.6.766 4.041-.892 3.971-2.7-.07-1.686-.07-1.686 2.62.014s2.675 1.714 6.883-.418c4.877-2.466 7.092-5.992 3.47-5.546-1.226.153-2.02.725-1.825 1.3.334.975-.948 1.3-8.36 2.048-1.756.181-2.411-.167-2.745-1.477-.892-3.553-8.709-2.843-9.907.906-.739 2.327-3.581 3.149-6.187 1.784-2.243-1.184-.627-2.759 3.929-3.776 3.275-.739 2.285-1.9-1.589-1.853a5.986 5.986 0 0 0-4.473 1.825c-1.644 1.77-1.686 1.77-2.466.376-.752-1.352-.961-1.366-4.11-.418-1.923.585-3.33.725-3.344.348s.53-.669 1.658-1.352c-.46-.39-3.776-.516-8.193-.293-5.086.251-7.817.1-8.681-.432-.948-.6-2.452-.627-6.131-.1a75.471 75.471 0 0 1-8.89.7 16.2 16.2 0 0 0-5.978 1.031c-2.034 1.073-9.113.85-9.169-.279-.028-.655-6.772-2.48-9.085-2.452-1.115.014-1.393.432-.85 1.3.46.739.265 1.282-4.626.543.056 1.421-1.909 1.756-3.511.6-1.282-.934-2.564-1.1-5.755-.766-3.344.348-4.348.181-5.434-.878s-2.09-1.226-5.253-.906c-2.16.223-4.236.139-4.612-.2-.934-.794-6.047-.7-6.925.125-.85.808-5.2.92-5.225.139-.042-.85-8.528-1.17-10.228-.4-.989.46-2.411.446-4.417-.028a26.844 26.844 0 0 0-5.379-.669 12.783 12.783 0 0 1-5.253-1.575c-1.589-.906-3.4-1.407-4.793-2.216 1.561-3.637-6.4-8.569-10.228-6.34a9.189 9.189 0 0 1-3.72.78 16.375 16.375 0 0 0-4.966 1.058 7.528 7.528 0 0 1-3.595.7c-2.94-.961-8.277.557-7.887 2.243s.376 1.686-15.313 1.8c-9.475.07-22.713-.334-34.793-1V34.7c-.822-.014-1.644-.014-2.452-.028-11.314-.07-14.45-.655-11.4-2.118.961-.46 7.037-.892 13.85-1.157v-5.723c-.5.084-.989.181-1.463.265-5.657 1.157-6.535 1.184-10.451.348a24.332 24.332 0 0 0-6.925-.516c-1.463.223-2.982.125-3.386-.223-.446-.39-6.507-.4-16.052-.028-18.3.711-19.633.739-26.377.6-4.57-.1-20.372.39-31.63.878-3.177-.167-7.469-.293-12.68-.348-8.806-.084-17.125-.46-18.463-.836-1.63-.46-15.732-.5-44.06-.153-.334-.752.014-1.7.85-3 .892-1.407.739-1.672-1-1.644a8.614 8.614 0 0 1-3.484-.725c-1.407-.739-5.532-1.282-9.461-1.477a5.542 5.542 0 0 0 .307-1.143c.543-2.912-.822-3.874-3.4-2.369-1.8 1.045-2.076 1.045-4.445-.084-2.257-1.073-13.112-2.536-18.337-2.466a2.927 2.927 0 0 0-2.661 1.63c-.906 2.229-5.518 2.815-12.29 1.575-6.479-1.184-18.184-1.059-25.485.279-10.771 1.965-16.317.557-13.753-3.5 2.048-3.233-3.553-5.978-6.842-3.358-1.115.892-2.438 1.059-5.992.794a19.605 19.605 0 0 0-7.413.613c-1.575.529-4.166 1.282-5.741 1.672s-3.9 1.059-5.17 1.5a50.756 50.756 0 0 1-9.837.961c-8.96.2-19.048 1.658-23.367 3.372a13.151 13.151 0 0 1-2.118.627l-1.839-.042c-3.846-.084-8.291-.125-9.893-.1s-7.092.056-12.206.056c-10.7.014-23.841.265-41.245.78-6.7.2-14.826.153-18.031-.125-7.915-.655-29.61-1.366-46.568-1.519-7.678-.07-16.846-.251-20.358-.4s-12.694-.32-20.358-.362-17.627-.209-22.113-.39c-14.561-.571-16.6-.446-19.563 1.17-2.745 1.5-2.745 1.5-4.71-.557a6.087 6.087 0 0 1-1.421-2.383c.6-.348 10.033-.516 27.631-.488 11.078.028 11.4-.028 13.725-1.742 2.884-2.132 2.341-2.494-4.027-2.661-9.8-.237-15.453-.822-16.8-1.728a7.411 7.411 0 0 0-3.525-.92 145.8 145.8 0 0 0-16.888 1.254c-1.1.279-4.306.028-7.232-.543a28.623 28.623 0 0 0-8.207-.585 12.478 12.478 0 0 1-5.657-.488c-2.369-.808-3.01-.808-5.044.014-2.09.85-2.787.794-6.758-.627-6.033-2.16-17.613-2.118-24.789.084-5.56 1.714-19.257 1.658-24.468-.084-4.152-1.379-7.552-.46-6.563 1.784.446 1.017.265 1.993-.418 2.243-2.452.892-1.031 1.491 4.375 1.853 8.932.613 29.6 1.338 34.793 1.24 2.745-.056 5.379.279 6.173.78 1.073.683 2.327.725 5.671.181 8.054-1.31 14.06-1.5 16.832-.557a17.08 17.08 0 0 0 6.4.557c2.94-.279 3.776-.125 3.8.7.056 1.449-3.024 2.034-5.337 1.031-1.853-.808-5.072.6-6.911 2.731a10.871 10.871 0 0 0-4.1 1.157 4.551 4.551 0 0 1-4.417.376c-3.066-1-3.484-.948-3.414.529.056 1.352-1.979 2.188-7.232 2.954-2.968.432-3.2.348-3.358-1.993-2.188.46-5.671-.585-6.633-2.717-.474-.028-3.5-.111-6.688-.209-15.369-.4-22.336-.864-24.608-1.616-2.689-.892-8.751-.056-12.4 1.714a4.871 4.871 0 0 1-2.94.488c-1.491-.488-13.349-.92-25.179-.934a94.037 94.037 0 0 1-10.486-.354c-2.3-.711-12.248-1.1-12.22-.488.056 1.143-3.33 1.393-6.633.488a43.544 43.544 0 0 0-9.308-.822c-6.047.084-6.047.084-4.417 2.146a5.625 5.625 0 0 1 .989 5.518s-1.9-.808-4.1-2.034c-4.682-2.62-6.661-2.829-6.577-.669a2.308 2.308 0 0 1-1.951 2.02c-2.578.613 2.257 1.756 4.9 1.157a3.553 3.553 0 0 1 2.982.948c1.7 1.672 4.111 1.644 7.023-.042 2.648-1.533 4.57-1.728 4.626-.446.042 1.115 4.919 1.77 8.778 1.184a13.056 13.056 0 0 1 5.936.6 10.447 10.447 0 0 0 4.961.571c2.926-.725 14.422-1.073 16.442-.516a59.568 59.568 0 0 0 8.193.808c8.514.4 8.165.4 12.638-.042a15.812 15.812 0 0 1 6.131.432c1.435.529 4.264.683 8 .446a46.6 46.6 0 0 1 9.308.237c-.056-1.143 5.351-2.7 7.232-2.09a84.439 84.439 0 0 0 10.687.488c5.142.028 17.724.153 27.952.153 23.144-.014 29.875.529 27.408 2.257-1.115.78-1.017 1.045.46 1.338 2.243.446 4.25-.209 4.194-1.366-.056-1.352 7.789-1.658 12.039-.474 3.247.906 4.222.92 8.138.1 5.476-1.157 8.96-.5 6.145 1.143a3.253 3.253 0 0 0-1.742 2.383c.07 1.686-1.589 1.728-4.654.111-3.121-1.658-4.724-1.575-4.64.237a4.546 4.546 0 0 1-1.686 2.926c-1.672 1.393-1.616 1.449 1.352 1.421 2.536-.028 3.01.2 2.55 1.254-.766 1.811.794 2.1 3.052.571a8.66 8.66 0 0 1 4.083-1.31c3.219-.042 5.044-1.672 4.166-3.734-1.087-2.55.934-4.166 3.219-2.578a4.768 4.768 0 0 1 1.8 2.968 1.359 1.359 0 0 1 .153 2.7c-1.881.376.153 3.679 2.731 4.389 1.226.348 2.243 1.031 2.257 1.533s.92 1.17 1.979 1.477c1.226.362 1.686.989 1.24 1.686-.92 1.435-3.316 1.031-4.863-.822-1.143-1.366-1.728-1.435-8.333-1.017-3.915.251-7.483.265-7.928.028-.934-.5-1.5-.529-9.085-.571-5.086-.028-5.532-.153-5.6-1.658-.084-2.048-3.386-2.815-5.365-1.24-1.658 1.324-5.95.934-8.263-.739-1.268-.92-1.616-.892-3.706.2a9.18 9.18 0 0 1-5.615.85 11.338 11.338 0 0 0-5.574.641c-2.759 1.212-10.506 1.449-11.607.028 1.6.766 4.041-.892 3.971-2.7-.07-1.686-.07-1.686 2.62.014s2.675 1.714 6.883-.418c4.877-2.466 7.092-5.992 3.47-5.546-1.226.153-2.02.725-1.825 1.3.334.975-.948 1.3-8.36 2.048-1.756.181-2.411-.167-2.745-1.477-.892-3.553-8.709-2.843-9.907.906-.739 2.327-3.581 3.149-6.187 1.784-2.243-1.184-.627-2.759 3.929-3.776 3.275-.739 2.285-1.9-1.589-1.853a5.986 5.986 0 0 0-4.473 1.825c-1.644 1.77-1.686 1.77-2.466.376-.752-1.352-.961-1.366-4.111-.418-1.923.585-3.33.725-3.344.348s.529-.669 1.658-1.352c-.46-.39-3.776-.516-8.193-.293-5.086.251-7.817.1-8.681-.432-.948-.6-2.452-.627-6.131-.1a75.468 75.468 0 0 1-8.89.7 16.2 16.2 0 0 0-5.978 1.031c-2.034 1.073-9.113.85-9.169-.279-.028-.655-6.772-2.48-9.085-2.452-1.115.014-1.379.432-.85 1.3.46.739.265 1.282-4.626.543.056 1.421-1.909 1.756-3.511.6-1.282-.934-2.564-1.1-5.755-.766-3.344.348-4.347.181-5.434-.878s-2.09-1.226-5.253-.906c-2.16.223-4.236.139-4.612-.2-.934-.794-6.047-.7-6.925.125-.85.808-5.2.92-5.225.139-.042-.85-8.528-1.17-10.228-.4-.989.46-2.411.446-4.417-.028a26.845 26.845 0 0 0-5.379-.669 12.783 12.783 0 0 1-5.253-1.575c-1.589-.906-3.4-1.407-4.793-2.216 1.561-3.637-6.4-8.569-10.228-6.34a9.189 9.189 0 0 1-3.72.78 16.374 16.374 0 0 0-4.961 1.073 7.528 7.528 0 0 1-3.595.7c-2.94-.961-8.277.557-7.887 2.243s.376 1.686-15.314 1.8c-14.3.111-37.176-.864-51.709-2.188-3.135-.293-8.43-.488-11.76-.446-8.792.111-21.445-2.285-25.959-4.919-2.564-1.491-3.553-1.463-4.25.153-.613 1.449-9.21 2.034-10.743.725a5.1 5.1 0 0 0-3.163-.32 17.446 17.446 0 0 1-5.852-.571 20.711 20.711 0 0 0-6.465-.585 14.823 14.823 0 0 1-5.392-.46c-1.533-.516-8.291-.878-18.463-.975-8.806-.084-17.125-.46-18.463-.836-1.658-.46-16.233-.5-45.606-.125-51.779.641-46.832.46-49.187 2.048-3.693 2.508-16.554.725-16.693-2.313-.056-1.379 1.157-1.672 9.768-2.438a59.251 59.251 0 0 0 8.667-1.366 12.412 12.412 0 0 1 4.417-.571 7.074 7.074 0 0 0 3.693-.864 6.086 6.086 0 0 1 4.264-.655 113.694 113.694 0 0 0 12.736.516c10.646.014 10.646.014 11.092-2.355.543-2.912-.822-3.874-3.4-2.369-1.8 1.045-2.076 1.045-4.445-.084-2.257-1.073-13.112-2.536-18.337-2.466a2.928 2.928 0 0 0-2.661 1.63c-.906 2.229-5.518 2.815-12.29 1.575-6.479-1.184-18.184-1.059-25.485.279-10.771 1.965-16.317.557-13.753-3.5 2.048-3.233-3.553-5.978-6.842-3.358-1.115.892-2.438 1.059-5.992.794a19.6 19.6 0 0 0-7.413.613c-1.575.529-4.166 1.282-5.741 1.672s-3.9 1.059-5.17 1.5a50.757 50.757 0 0 1-9.837.961c-8.96.2-19.048 1.658-23.367 3.372a24.683 24.683 0 0 1-8.667 1.24 94.35 94.35 0 0 0-12.485 1.143c-3.8.627-9 1.449-11.523 1.825a29.637 29.637 0 0 0-6.326 1.575 23.012 23.012 0 0 1-5.769 1.393 36.754 36.754 0 0 0-6.587 1.44 17.4 17.4 0 0 1-4.835.961 5.738 5.738 0 0 0-3.024.725 34.38 34.38 0 0 1-6.772 2.369c-5.351 1.491-15.536 6.939-22.462 12a20 20 0 0 1-6.66 2.174C8.249 37.755-.07 41.782 0 43.5c.056 1.212 3.428 1.686 14.617 2.02 18.072.543 32.146 1.477 37.315 2.452 7.5 1.421 37.9 2.48 41.2 1.449 1.644-.516 4.473-.488 10.228.084 4.375.432 13.168.766 19.522.711 19.745-.139 42.178.739 46.512 1.811 3.846.961 4.152.934 7.706-.529 2.954-1.226 4.069-1.379 5.6-.794 5.086 1.937 7.134 2.174 9.252 1.059a36.7 36.7 0 0 1 6.967-2.118c4.807-1.017 4.988-1 7.956.571 2.174 1.157 3.386 1.407 4.264.906 2.425-1.407 20.636-1.143 21.389.32.934 1.8 3 1.561 6.521-.725a12.755 12.755 0 0 1 4.278-1.993 7.566 7.566 0 0 0 3.247-1.449c1.784-1.282 3-1.435 11.565-1.449a94.825 94.825 0 0 1 10.646.334 6.772 6.772 0 0 0 3.428-.613c2.02-.822 3.163-.85 7.845-.167 3.01.432 10.994 1.059 17.71 1.379s15.383.934 19.243 1.366c3.971.446 18.323.794 33.107.836 14.352.028 26.962.307 28.007.6a27.362 27.362 0 0 0 5.894.446 69.3 69.3 0 0 1 9.029.585c2.773.376 9.169.725 14.213.808s10.9.4 13.028.725 11.064.683 19.87.794 17.445.488 19.215.85a77.387 77.387 0 0 0 10.785.711c4.152.028 13.07.362 19.8.725s13.809.669 15.718.655 50.455 1.3 65.17 1.491 33.052.585 40.729.864c23.6.864 25.3.906 36.089 1.017 5.755.056 16.93.362 24.844.669 10.576.4 15.4.348 18.24-.209a14.589 14.589 0 0 1 5.992-.2 48.468 48.468 0 0 0 15.467.474 31.951 31.951 0 0 1 9.489 0c3.442.376 8.611.739 11.482.822 6.242.167 68.179 1.212 83.451 1.407 5.908.084 11.245.307 11.858.5s14.366.348 30.557.334 64.6.167 90.488 0 47.864-.237 48.825-.153 5.574-.153 10.242-.516c7.956-.613 8.611-.78 10.172-2.675a8.067 8.067 0 0 1 2.271-1.784c.39.181.836.418 1.365.7 2.174 1.157 3.386 1.407 4.264.906 2.424-1.407 20.636-1.143 21.389.32.934 1.8 3 1.561 6.521-.725a12.755 12.755 0 0 1 4.278-1.993 7.567 7.567 0 0 0 3.247-1.449c1.784-1.282 3-1.435 11.565-1.449a94.822 94.822 0 0 1 10.646.334 6.772 6.772 0 0 0 3.428-.613c2.021-.822 3.163-.85 7.845-.167 3.01.432 10.994 1.059 17.71 1.379s15.383.934 19.243 1.366c3.971.446 18.323.794 33.107.836 14.352.028 26.962.307 28.007.6a27.361 27.361 0 0 0 5.894.446 69.3 69.3 0 0 1 9.029.585c2.773.376 9.169.725 14.213.808s10.9.4 13.028.725 11.064.683 19.87.794 17.445.488 19.215.85a77.389 77.389 0 0 0 10.785.711c4.152.028 13.07.362 19.8.725s13.809.669 15.718.655 50.455 1.3 65.17 1.491 33.052.585 40.729.864c23.6.864 25.3.906 36.089 1.017 5.755.056 16.93.362 24.844.669 10.576.4 15.4.348 18.24-.209a14.589 14.589 0 0 1 5.992-.2 48.468 48.468 0 0 0 15.467.474 31.952 31.952 0 0 1 9.489 0c3.442.376 8.611.739 11.482.822 6.242.167 68.179 1.212 83.451 1.407 5.908.084 11.245.307 11.858.5s14.366.348 30.557.334 64.6.167 90.488 0 47.864-.237 48.825-.153 5.574-.153 10.241-.516c7.956-.613 8.611-.78 10.172-2.675 2.62-3.177 10.618-5.17 20.581-5.142a108.884 108.884 0 0 0 11.524-.474c6.521-.934 57.868-1.547 60.293-.711a5.739 5.739 0 0 0 4.766-.209c1.812-.7 4.835-.92 10.562-.808 4.417.084 8.974-.139 10.13-.5a5.014 5.014 0 0 1 4.1.307c1.742.836 2.675.836 7.176.014 10.813-1.965 22.141-3.275 28.607-3.316 3.693-.014 10.869-.39 15.968-.808s16-.989 24.217-1.268c11.733-.39 15.4-.725 17.028-1.575 2.062-1.087 7.106-1.143 16.777-.181.808.084 1.756.139 2.8.181V43.148c-.822-.014-1.644-.014-2.452-.028-11.148-.098-14.281-.683-11.232-2.16zm-656.058-7.636a1.615 1.615 0 0 1-1.8-1.268c-.028-.711.725-1.3 1.686-1.31s1.77.543 1.8 1.268-.71 1.296-1.685 1.31zm42.5-1.853c-1.672.028-2.188-.265-1.742-.975.711-1.115 2.857-1 3.637.181.278.432-.572.78-1.896.794zm51.751-1.184c-.543-.139.223-.627 1.7-1.073 2.759-.85 4.431-.766 4.473.223.013.613-4.615 1.254-6.173.849zm11.44 2.3c-1.087.014-1.7-.418-1.5-1.059.5-1.63 3.2-1.881 3.275-.307.036.793-.689 1.351-1.775 1.365zm1.588-5.783c-.028-.766 2.2-1.6 3.052-1.157s-.558 1.727-3.052 1.153zm7.97-3.358c1.812-.571 2.341-.529 2.369.153.07 1.588-2.578 2.369-3.985 1.184-.39-.335.334-.934 1.616-1.338zm6.688 10.618c-2.02 1.8-5.852 2.118-6.981.585-.892-1.2 2.634-5.434 4.529-5.448 2.717-.043 4.334 3.176 2.453 4.862zm30.209-1.1c-3.024-.655-4.752-.711-6.368-.209a7.366 7.366 0 0 1-3.428.307c-1.937-.627 1.17-2.327 3.553-1.937a4.121 4.121 0 0 0 2.8-.348c1.129-1.073 3.846-.836 6.493.557 3.486 1.837 1.897 2.701-3.049 1.628zm-967.749-8a1.615 1.615 0 0 1-1.8-1.268c-.028-.711.725-1.3 1.686-1.31s1.77.543 1.8 1.268-.71 1.296-1.685 1.31zm42.5-1.853c-1.672.028-2.188-.265-1.742-.975.711-1.115 2.856-1 3.637.181.265.431-.571.783-1.895.793zm51.737-1.184c-.543-.139.223-.627 1.7-1.073 2.759-.85 4.431-.766 4.473.223.028.612-4.598 1.253-6.173.849zm11.454 2.3c-1.087.014-1.7-.418-1.5-1.059.5-1.63 3.2-1.881 3.275-.307.036.793-.688 1.35-1.775 1.364zm1.588-5.783c-.028-.766 2.2-1.6 3.052-1.157s-.557 1.727-3.052 1.156zm7.956-3.358c1.811-.571 2.341-.529 2.369.153.07 1.588-2.592 2.369-3.985 1.184-.376-.335.349-.935 1.617-1.339zm6.7 10.618c-2.02 1.8-5.852 2.118-6.981.585-.892-1.2 2.634-5.434 4.529-5.448 2.72-.041 4.336 3.175 2.455 4.859zm30.2-1.1c-3.024-.655-4.751-.711-6.368-.209a7.366 7.366 0 0 1-3.428.307c-1.937-.627 1.171-2.327 3.553-1.937a4.121 4.121 0 0 0 2.8-.348c1.129-1.073 3.846-.836 6.493.557 3.497 1.836 1.895 2.7-3.052 1.626zM507.827 28.1a3.111 3.111 0 0 1-3.609-.711c-.279-.418.571-.766 1.923-.794 2.411-.015 3.159.64 1.686 1.505zm3.4-3.3c-1.059.613-2.745-.084-2.787-1.17-.028-.516.752-.934 1.7-.948 1.76-.017 2.439 1.334 1.087 2.118zm81.988 21.58c-1.561 1.087-4.71.752-4.765-.516-.042-1.1 3.5-1.867 4.988-1.073.762.391.697.934-.223 1.589zm7.371-2.3c-1.059.989-4.027.836-4.835-.265-.725-.975 1.268-2.912 3.01-2.926 1.296-.013 2.675 2.384 1.825 3.192zm5.323-2.327a7.541 7.541 0 0 1 1.965-1.588c1.3-.752 2.383-1.045 2.4-.641.026.753-3.641 2.62-4.365 2.23zm16.623.613a5.01 5.01 0 0 1-6.006.766c-1.951-1.031 1.324-4.682 3.776-4.194a16.691 16.691 0 0 0 2.843.334c1.631-.012 1.338 1.479-.613 3.095zm12.638-1.115c-1.059.613-2.745-.084-2.8-1.17-.028-.516.752-.934 1.7-.948 1.769-.012 2.466 1.339 1.1 2.12zm5.072 6.869a2.685 2.685 0 0 1-3.86-.85c-.237-.613.32-1.073 1.338-1.087 2.16-.026 3.498 1.005 2.522 1.939zm8.765.293c-2.48-.488-3.539-1.115-3.581-2.146-.084-1.881 1.379-1.881 5.281.042 3.957 1.938 3.065 3.039-1.7 2.106zm50.539.209c-1.352.655-2.4.683-4.779.111-2.466-.585-3.525-.529-5.476.265-3.163 1.282-3.442 1.282-5.769-.07-2.16-1.254-.85-2.675 2.536-2.745a15.276 15.276 0 0 0 4.654-1.338c3.762-1.714 4.584-1.672 4.668.265.056 1.17.7 1.6 2.327 1.575 3.051-.026 3.957.921 1.839 1.939zm68.179-26.362a1.459 1.459 0 0 1-.32 2.884 5.877 5.877 0 0 1-2.3-.376c-1.128-.585 1.324-2.926 2.62-2.508zm-8.4 7.636a32.051 32.051 0 0 0 6.591-1.993c1.811-.948 2.243-.975 3.2-.167 1.686 1.407 1.435 2.4-.794 3.135-1.9.627-1.881.711.251 1.547 4.529 1.77.32 3.079-4.529 1.407a25.647 25.647 0 0 1-4.71-2.508 14.687 14.687 0 0 1-5 .4c.279-.511 2.523-1.333 4.989-1.817zm-12.987-5.114c3.623-.042 4.083-.237 3.72-1.5-.279-.948.181-1.449 1.324-1.463a2.241 2.241 0 0 1 2.188 1.742c.237.975-.112 1.77-1.993 2.689.042.85-4.1 2.926-6.006 3.024-.488.028-1.435-.7-2.1-1.588-1.886-2.541-1.58-2.848 2.865-2.903zm3.316 9.726c-3.163 1.491-4.515 1.561-5.462.265-.822-1.129 2.494-3.553 4.891-3.581 2.953-.042 3.301 2.021.57 3.316zm19.41 8.04a2.787 2.787 0 0 0-2.229 1.324c-.725 1.366-3.358 1.77-4.626.7-1.115-.948-4.779-.711-6.382.4-1.867 1.31-6.911 1.366-6.967.07-.028-.543-.961-1.17-2.09-1.379-4.208-.808-6.9-4.57-2.829-4.933.042.906.808 1 4.807.6 4.626-.474 4.751-.446 4.111 1.115-.864 2.1.794 2.564 3.247.906 2.383-1.616 4.612-1.352 5.225.613.446 1.435.543 1.421 4.333-.711 2.661-1.5 4.264-1.979 5.1-1.533 1.546.808.347 2.801-1.701 2.828zm8.917-11.148a1.135 1.135 0 0 0 .655 1.672c.892.293.683.822-.641 1.672-2.466 1.575-2.257 1.616-4.515-.752a11.264 11.264 0 0 1-1.63-2.146c.892-.417 5.406-1.671 6.131-.446zM775.7 45.684a5.99 5.99 0 0 1-2.9-.516c-.989-.85 2.16-2.954 3.679-2.452 2.31.738 1.721 2.94-.779 2.968zm5.058-2.87c-1.616-.39-2.94-1.073-2.968-1.519-.042-1.017 2.536-1.073 4.4-.084 2.674 1.421 1.81 2.396-1.436 1.602zm445.152-9.169h-1.2a64.495 64.495 0 0 1-4.542-.139 7.289 7.289 0 0 1 5.737.139zm-148.654-12.694c1 .892-1.254 3.428-3.079 3.442-1.825-1.157 2.536-3.93 3.079-3.442zm-235.388 11.23c3.651.46 5.016 1.9 3.079 3.261-1.8 1.268-3.539 1.282-2.731.028.794-1.226-3.038-2.076-4.236-.948-3.26-1.212.433-2.772 3.888-2.341zm-38.848-1.964c1.63.529 1.31 2.188-.418 2.216a6.05 6.05 0 0 1-2.327-.39c-1.087-.572 1.449-2.258 2.745-1.826zm-2.48 5.574c-2.843 1.059-5.476.627-6.3-1.017-1.017-2.034-.279-2.48 3.344-2.034 3.304.417 5.102 2.26 2.956 3.05zm6.159 9.071c-1.853.446-4.333.557-4.347.209-.028-.529 3.553-2.341 4.64-2.355 1.602-.028 1.379 1.741-.292 2.145zm3.344-8.653a1.244 1.244 0 0 1-1.143-1.269c-.056-1.352 1.616-1.756 2.87-.683.893.743-.17 1.937-1.727 1.951zm1.24-5.086c-2.243-.752-.7-3.957 1.937-3.985 2.438-.028 3.888 1.561 3 3.275-.687 1.281-2.429 1.532-4.937.709zm3.414 3.386c-.042-1.031 3.01-2.062 4.208-1.435.376.2.4.822.056 1.366-.836 1.309-4.208 1.36-4.261.068zm508.733 1.951a3.111 3.111 0 0 1-3.609-.711c-.279-.418.571-.766 1.923-.794 2.41-.015 3.177.645 1.686 1.504zm3.4-3.3c-1.059.613-2.745-.084-2.787-1.17-.028-.516.752-.934 1.7-.948 1.757-.017 2.457 1.335 1.086 2.115zm81.988 21.584c-1.561 1.087-4.71.752-4.766-.516-.042-1.1 3.5-1.867 4.988-1.073.767.387.697.931-.222 1.586zm7.371-2.3c-1.059.989-4.027.836-4.835-.265-.725-.975 1.268-2.912 3.01-2.926 1.309-.016 2.675 2.38 1.825 3.189zm5.323-2.327a7.539 7.539 0 0 1 1.965-1.588c1.3-.752 2.383-1.045 2.4-.641.023.75-3.627 2.612-4.366 2.227zm16.623.613a5.01 5.01 0 0 1-6.006.766c-1.951-1.031 1.324-4.682 3.776-4.194a16.691 16.691 0 0 0 2.843.334c1.63-.016 1.338 1.475-.613 3.092zm12.652-1.115c-1.059.613-2.745-.084-2.8-1.17-.014-.516.752-.934 1.7-.948 1.755-.016 2.452 1.336 1.1 2.116zm5.058 6.869a2.685 2.685 0 0 1-3.86-.85c-.237-.613.32-1.073 1.338-1.087 2.16-.029 3.511 1.002 2.522 1.935zm8.764.293c-2.48-.488-3.539-1.115-3.581-2.146-.084-1.881 1.365-1.881 5.281.042 3.972 1.935 3.08 3.036-1.7 2.102zm50.553.209c-1.352.655-2.4.683-4.779.111-2.466-.585-3.525-.529-5.476.265-3.163 1.282-3.442 1.282-5.769-.07-2.16-1.254-.85-2.675 2.536-2.745a15.277 15.277 0 0 0 4.654-1.338c3.762-1.714 4.584-1.672 4.668.265.056 1.17.7 1.6 2.327 1.575 3.038-.03 3.943.918 1.839 1.935zm68.166-26.363a1.459 1.459 0 0 1-.32 2.884 5.878 5.878 0 0 1-2.3-.376c-1.114-.587 1.324-2.931 2.62-2.51zm-8.388 7.636a32.048 32.048 0 0 0 6.591-1.993c1.812-.948 2.243-.975 3.2-.167 1.686 1.407 1.435 2.4-.794 3.135-1.9.627-1.881.711.251 1.547 4.529 1.77.321 3.079-4.529 1.407a25.649 25.649 0 0 1-4.71-2.508 14.686 14.686 0 0 1-5 .4c.267-.513 2.51-1.336 4.991-1.823zm-13-5.114c3.623-.042 4.083-.237 3.72-1.5-.279-.948.181-1.449 1.324-1.463a2.24 2.24 0 0 1 2.188 1.742c.237.975-.111 1.77-1.993 2.689.042.85-4.1 2.926-6.006 3.024-.488.028-1.435-.7-2.1-1.588-1.873-2.544-1.565-2.849 2.866-2.906zm3.316 9.726c-3.163 1.491-4.515 1.561-5.462.265-.822-1.129 2.494-3.553 4.891-3.581 2.953-.044 3.315 2.018.57 3.314zm19.41 8.04a2.787 2.787 0 0 0-2.229 1.324c-.725 1.366-3.358 1.77-4.626.7-1.115-.948-4.779-.711-6.382.4-1.867 1.31-6.911 1.366-6.967.07-.028-.543-.961-1.17-2.09-1.379-4.208-.808-6.9-4.57-2.829-4.933.042.906.808 1 4.807.6 4.626-.474 4.751-.446 4.11 1.115-.864 2.1.794 2.564 3.247.906 2.383-1.616 4.612-1.352 5.225.613.446 1.435.543 1.421 4.333-.711 2.661-1.5 4.264-1.979 5.1-1.533 1.561.805.363 2.798-1.699 2.826zm8.932-11.147a1.135 1.135 0 0 0 .655 1.672c.892.293.683.822-.641 1.672-2.466 1.575-2.257 1.616-4.515-.752a11.267 11.267 0 0 1-1.63-2.146c.877-.421 5.406-1.675 6.133-.448zm-2.285 14.282a5.99 5.99 0 0 1-2.9-.516c-.989-.85 2.16-2.954 3.679-2.452 2.313.737 1.728 2.938-.78 2.966zm5.044-2.87c-1.616-.39-2.94-1.073-2.968-1.519-.042-1.017 2.536-1.073 4.4-.084 2.692 1.419 1.811 2.395-1.433 1.601zm22.267-12.6c1.63.529 1.31 2.188-.418 2.216a6.051 6.051 0 0 1-2.327-.39c-1.088-.571 1.448-2.257 2.744-1.825zm-2.48 5.574c-2.843 1.059-5.476.627-6.3-1.017-1.017-2.034-.279-2.48 3.344-2.034 3.312.418 5.1 2.258 2.954 3.052zm6.159 9.071c-1.853.446-4.333.557-4.347.209-.028-.529 3.553-2.341 4.64-2.355 1.614-.027 1.377 1.743-.296 2.147zm3.358-8.653a1.244 1.244 0 0 1-1.142-1.268c-.056-1.352 1.616-1.756 2.87-.683.876.74-.169 1.938-1.729 1.952zm1.226-5.086c-2.243-.752-.7-3.957 1.937-3.985 2.438-.028 3.888 1.561 3 3.275-.689 1.282-2.43 1.533-4.938.711zm7.677 3.316c-.836 1.3-4.208 1.352-4.264.07-.042-1.031 3.01-2.062 4.208-1.435.376.21.404.823.055 1.367zm23.618 10.785c-1.143 1.77-4.724.78-4.807-1.324-.056-1.491.446-1.923 2.229-1.951 2.41-.026 3.678 1.576 2.578 3.276zm2.383-9.782c-1.8 1.268-3.539 1.282-2.731.028.794-1.226-3.038-2.076-4.236-.948-3.26-1.212.432-2.787 3.888-2.341 3.65.46 5.014 1.911 3.078 3.26zm12.123 9.043c-1.017-.1-1.881-.739-1.909-1.449-.07-1.491 3.818-2.2 5.281-.961 1.253 1.074-.935 2.635-3.373 2.412zm39.378.92c-1.421.014-2.243-.307-1.979-.78.683-1.226 4.306-1.449 4.347-.265.027.6-.948 1.032-2.369 1.046zm32.745 4.793c-2.7 1.212-6.8 1.728-6.842.878-.056-1.477 4.947-3.4 7.2-2.773 2.358.657 2.358.684-.359 1.897zm14.659.139c-2.8 1.2-6.8 1.031-7.315-.334-.683-1.742 5.086-3.079 7.552-1.756 1.921 1.047 1.907 1.158-.239 2.094zm51.208-.488c-.906.864-1.825.906-3.916-1.031 1.81-.862 5.029-.012 3.914 1.033zm79.1-25.458c-1.825-1.143 2.536-3.915 3.079-3.442 1.005.892-1.252 3.417-3.077 3.445zm28.662 22.406c-.906.529-2.745-.028-1.073-1.477 1.8-.025 2.343.727 1.075 1.48zm48.407-.181c-2.606-1.338-.46-2.132 1.115-1.616 1.312.42.517 1.591-1.113 1.619zm68.639-12.5c-.878-.752 3.9-1.951 6.27-.32-1.502 1.062-5.181 1.245-6.268.324z" class="cls-1" data-name="Path 4325"/>
    </g>
</svg>
